<svg width="20" height="20" viewBox="0 0 20 20" fill="none" xmlns="http://www.w3.org/2000/svg">
<g clip-path="url(#clip0_13050_2098)">
<path d="M18.3334 9.2333V9.99997C18.3323 11.797 17.7504 13.5455 16.6745 14.9848C15.5985 16.4241 14.0861 17.477 12.3628 17.9866C10.6395 18.4961 8.79774 18.4349 7.11208 17.8121C5.42642 17.1894 3.98723 16.0384 3.00915 14.5309C2.03108 13.0233 1.56651 11.24 1.68475 9.4469C1.80299 7.65377 2.49769 5.94691 3.66525 4.58086C4.83281 3.21482 6.41068 2.26279 8.16351 1.86676C9.91635 1.47073 11.7502 1.65192 13.3917 2.3833" stroke="#56BD5B" stroke-width="2" stroke-linecap="round" stroke-linejoin="round"/>
<path d="M18.3333 3.33337L10 11.675L7.5 9.17504" stroke="#56BD5B" stroke-width="2" stroke-linecap="round" stroke-linejoin="round"/>
</g>
<defs>
<clipPath id="clip0_13050_2098">
<rect width="20" height="20" fill="white"/>
</clipPath>
</defs>
</svg>
