{
	"asset":{
		"generator":"Khronos glTF Blender I/O v4.2.60",
		"version":"2.0"
	},
	"scene":0,
	"scenes":[
		{
			"name":"Scene",
			"nodes":[
				4
			]
		}
	],
	"nodes":[
		{
			"mesh":0,
			"name":"#REC0002_33_Highway_To_Hell_#REC0002_Textures_0"
		},
		{
			"children":[
				0
			],
			"name":"#REC0002_33_Highway_To_Hell",
			"rotation":[
				-0.70710688829422,
				0,
				0,
				0.7071066498756409
			]
		},
		{
			"children":[
				1
			],
			"name":"RootNode"
		},
		{
			"children":[
				2
			],
			"name":"33_1-3_Record.fbx",
			"rotation":[
				0.70710688829422,
				0,
				0,
				0.7071066498756409
			]
		},
		{
			"children":[
				3
			],
			"name":"Sketchfab_model",
			"rotation":[
				-0.4955422282218933,
				-0.504448413848877,
				-0.5021486282348633,
				0.4978117048740387
			],
			"translation":[
				0,
				0.00014000000373926014,
				-0.00035700001171790063
			]
		}
	],
	"materials":[
		{
			"doubleSided":true,
			"name":"REC0002_Textures.001",
			"normalTexture":{
				"index":0
			},
			"occlusionTexture":{
				"index":1
			},
			"pbrMetallicRoughness":{
				"baseColorTexture":{
					"index":2
				},
				"metallicRoughnessTexture":{
					"index":1
				}
			}
		}
	],
	"meshes":[
		{
			"name":"#REC0002_33_Highway_To_Hell_#REC0002_Textures_0.001",
			"primitives":[
				{
					"attributes":{
						"POSITION":0,
						"NORMAL":1,
						"TEXCOORD_0":2
					},
					"indices":3,
					"material":0
				}
			]
		}
	],
	"textures":[
		{
			"sampler":0,
			"source":0
		},
		{
			"sampler":0,
			"source":1
		},
		{
			"sampler":0,
			"source":2
		}
	],
	"images":[
		{
			"mimeType":"image/png",
			"name":"Image_2",
			"uri":"Image_2.png"
		},
		{
			"mimeType":"image/png",
			"name":"Image_1",
			"uri":"Image_1.png"
		},
		{
			"mimeType":"image/png",
			"name":"Image_0",
			"uri":"Image_0.png"
		}
	],
	"accessors":[
		{
			"bufferView":0,
			"componentType":5126,
			"count":774,
			"max":[
				0.14999999105930328,
				0.14999999105930328,
				0.0010499998461455107
			],
			"min":[
				-0.14999999105930328,
				-0.14999999105930328,
				-2.9103830456733704e-10
			],
			"type":"VEC3"
		},
		{
			"bufferView":1,
			"componentType":5126,
			"count":774,
			"type":"VEC3"
		},
		{
			"bufferView":2,
			"componentType":5126,
			"count":774,
			"type":"VEC2"
		},
		{
			"bufferView":3,
			"componentType":5123,
			"count":2304,
			"type":"SCALAR"
		}
	],
	"bufferViews":[
		{
			"buffer":0,
			"byteLength":9288,
			"byteOffset":0,
			"target":34962
		},
		{
			"buffer":0,
			"byteLength":9288,
			"byteOffset":9288,
			"target":34962
		},
		{
			"buffer":0,
			"byteLength":6192,
			"byteOffset":18576,
			"target":34962
		},
		{
			"buffer":0,
			"byteLength":4608,
			"byteOffset":24768,
			"target":34963
		}
	],
	"samplers":[
		{
			"magFilter":9729,
			"minFilter":9987
		}
	],
	"buffers":[
		{
			"byteLength":29376,
			"uri":"vinyl.bin"
		}
	]
}
